<?xml version="1.0" encoding="UTF-8" standalone="no"?>
<!DOCTYPE svg PUBLIC "-//W3C//DTD SVG 1.1//EN" "http://www.w3.org/Graphics/SVG/1.1/DTD/svg11.dtd">
<svg width="100%" height="100%" viewBox="0 0 24 24" version="1.1" xmlns="http://www.w3.org/2000/svg" xmlns:xlink="http://www.w3.org/1999/xlink" xml:space="preserve" xmlns:serif="http://www.serif.com/" style="fill-rule:evenodd;clip-rule:evenodd;stroke-linecap:round;stroke-linejoin:round;">
    <g>
        <path d="M15,8L15.01,8" style="fill:none;fill-rule:nonzero;stroke:rgb(119,119,119);stroke-width:2px;"/>
        <path d="M12.5,21L6,21C4.354,21 3,19.646 3,18L3,6C3,4.354 4.354,3 6,3L18,3C19.646,3 21,4.354 21,6L21,12.5M3,16L8,11C8.928,10.107 10.072,10.107 11,11L15,15M14,14L15,13C15.67,12.356 16.45,12.176 17.182,12.46" style="fill:none;fill-rule:nonzero;stroke:rgb(119,119,119);stroke-width:1.7px;"/>
    </g>
    <path d="M16,19L22,19M19,16L19,22" style="fill:none;fill-rule:nonzero;stroke:rgb(255,105,180);stroke-width:1.7px;"/>
</svg>
